<svg height="512pt" viewBox="0 0 512 512" width="512pt" xmlns="http://www.w3.org/2000/svg"><path d="m497 511.15625h-482c-8.285156 0-15-6.714844-15-15v-226.023438c0-33.082031 26.914062-60 60-60 9.894531 0 381.980469.023438 392 .023438 33.085938 0 60 26.914062 60 60v226c0 8.285156-6.714844 15-15 15zm0 0" fill="#e51b8a"/><path d="m452 210.15625c-5.011719 0-100.5 0-196-.011719v301.011719h241c8.28125 0 15-6.71875 15-15v-226c0-33.082031-26.921875-60-60-60zm0 0" fill="#c80060"/><path d="m315 480.15625c-8.285156 0-15-6.714844-15-15v-89.066406c0-12.574219-4.941406-24.34375-13.921875-33.140625-28.535156-27.964844-76.078125-6.960938-76.078125 32.148437v90.058594c0 8.285156-6.714844 15-15 15-65.1875 0-63.066406.828125-68.054688-2.347656-65.921874-41.964844-70.316406-90.214844-65.195312-169.851563 2.46875-38.273437-4.5-78.21875-20.152344-115.511719-49.902344-118.757812 71.574219-238.3125 179-174.757812 21.527344 12.722656 48.277344 12.722656 69.808594-.003906 107.921875-63.847656 229.871094 56.988281 178.433594 176.101562-15.621094 36.144532-22.695313 76.332032-20.460938 116.226563 4.320313 78.707031 2.121094 125.921875-60.023437 167.601562-5.160157 3.460938-2.773438 2.542969-73.355469 2.542969zm0 0" fill="#eee"/><path d="m290.410156 17.6875c-10.621094 6.269531-22.5 9.449219-34.410156 9.527344v302.929687c23.875.363281 44 20.714844 44 45.941407v89.070312c0 8.28125 6.71875 15 15 15 70.578125 0 68.199219.917969 73.359375-2.539062 62.140625-41.679688 64.339844-88.902344 60.019531-167.609376-2.238281-39.890624 4.839844-80.082031 20.460938-116.222656 51.402344-119.050781-70.457032-240-178.429688-176.097656zm0 0" fill="#dedede"/><path d="m179.523438 492.398438c-.296876-1.140626-29.523438-114.871094-29.523438-177.242188 0-46.917969 33.148438-89.664062 78.824219-101.636719 8.011719-2.101562 12.804687-10.300781 10.703125-18.3125-2.097656-8.011719-10.300782-12.804687-18.3125-10.707031-8.230469 2.160156-16.230469 5.144531-23.898438 8.835938 7.117188-19.414063 12.683594-40.308594 12.683594-58.179688 0-8.285156-6.714844-15-15-15s-15 6.714844-15 15c0 17.0625-7.234375 39.75-15.753906 60.34375-3.308594-12.839844-8.546875-26.335938-16.765625-38.664062-4.59375-6.894532-13.910157-8.757813-20.800781-4.160157-6.894532 4.597657-8.753907 13.910157-4.160157 20.800781 17.691407 26.542969 17.464844 62.359376 17.015625 72.300782-12.675781 20.960937-19.535156 45.078125-19.535156 69.378906 0 63.648438 28.878906 180.761719 30.988281 186.332031h28.011719c1.070312-2.785156 1.34375-5.917969.523438-9.089843zm0 0" fill="#e51b8a"/><path d="m390 315.15625c0-28.386719-8.867188-56.574219-26.496094-80.386719 2.125-8.425781 7.589844-24.746093 20.3125-39.207031 5.472656-6.222656 4.863282-15.699219-1.355468-21.171875-6.222657-5.472656-15.699219-4.863281-21.171876 1.355469-7.65625 8.703125-13.320312 17.839844-17.503906 26.316406-6.589844-15.417969-9.632812-31.851562-1.558594-43.21875 4.800782-6.753906 3.214844-16.117188-3.539062-20.914062-6.753906-4.796876-16.117188-3.214844-20.914062 3.539062-7.320313 10.296875-13.472657 26.488281-8.746094 49.949219-3.6875-1.605469-7.457032-3.074219-11.332032-4.367188-7.859374-2.621093-16.351562 1.632813-18.972656 9.488281-2.617187 7.859376 1.632813 16.355469 9.492188 18.976563 43.113281 14.363281 71.785156 54.582031 71.785156 99.640625 0 62.324219-29.226562 176.101562-29.523438 177.246094-.808593 3.128906-.554687 6.28125.515626 9.085937h28.023437c1.0625-2.804687 30.984375-120.011719 30.984375-186.332031zm0 0" fill="#c80060"/></svg>