<svg height="512" viewBox="0 0 512 512" width="512" xmlns="http://www.w3.org/2000/svg"><path d="m367.949 103.949a120 120 0 0 0 -119.949 120v.051l-32 40 32 16v24h16a24 24 0 0 1 0 48 8 8 0 0 0 -8 8l8 24h64v88h120v-88l15.366-36.881a320.217 320.217 0 0 0 24.634-123.17 120 120 0 0 0 -120.051-120z" fill="#dc9315"/><path d="m447.362 347.115a320.217 320.217 0 0 0 24.638-123.166 119.911 119.911 0 0 0 -111.988-119.6 119.91 119.91 0 0 0 -112.012 119.6v.051l-32 40 32 16v24h16a24 24 0 0 1 0 48 8 8 0 0 0 -8 8l8 24h64v88h104v-88z" fill="#fdb62f"/><path d="m320 232h-32a8 8 0 0 1 -5.656-13.656l24-24a8 8 0 0 1 11.313 11.313l-10.349 10.343h12.692a8 8 0 0 1 0 16z" fill="#d38e14"/><path d="m376 312a8 8 0 0 0 -8 8v20.253l-52.5 43.747h12.5v10.411l53.121-44.267a7.994 7.994 0 0 0 2.879-6.144v-24a8 8 0 0 0 -8-8z" fill="#dc9315"/><path d="m216 328h-40a32 32 0 0 1 0-64 8 8 0 0 1 0 16 16 16 0 0 0 0 32h40a8 8 0 0 1 0 16z" fill="#acdee3"/><path d="m176 408a32 32 0 0 1 0-64h40a8 8 0 0 1 0 16h-40a16 16 0 0 0 0 32 8 8 0 0 1 0 16z" fill="#acdee3"/><path d="m80.96 248a13.924 13.924 0 0 1 13.882 14.991l-6.842 89.009a16.011 16.011 0 0 1 18.688-15.781c7.866 1.279 13.312 8.666 13.312 16.636v119.145h-64v-24l-24-56v-56l36.29-79.839a13.925 13.925 0 0 1 12.67-8.161z" fill="#fdb62f"/><path d="m80.96 248a13.924 13.924 0 0 1 13.882 14.991l-6.842 89.009a16.011 16.011 0 0 1 18.688-15.781c7.866 1.279 13.312 8.666 13.312 16.636v119.145h-64v-24l-24-56v-56l36.29-79.839a13.925 13.925 0 0 1 12.67-8.161z" fill="#fdb62f"/><path d="m80.96 248a13.924 13.924 0 0 1 13.882 14.991l-6.842 89.009a16.011 16.011 0 0 1 18.688-15.781c7.866 1.279 13.312 8.666 13.312 16.636v119.145h-64v-24l-24-56v-56l36.29-79.839a13.925 13.925 0 0 1 12.67-8.161z" fill="#fdb62f"/><path d="m89.222 336.041-1.227 15.955z" fill="#dc9315"/><path d="m96 338.184a15.96 15.96 0 0 0 -8 13.816v40h8z" fill="#dc9315"/><g fill="#acdee3"><path d="m79.995 111.995h16v16h-16z"/><path d="m79.995 79.995h16v16h-16z"/><path d="m63.995 95.995h16v16h-16z"/><path d="m95.995 95.995h16v16h-16z"/></g><path d="m239.995 63.995h16v16h-16z" fill="#fbeebd"/><path d="m239.995 31.995h16v16h-16z" fill="#fbeebd"/><path d="m223.995 47.995h16v16h-16z" fill="#fbeebd"/><path d="m255.995 47.995h16v16h-16z" fill="#fbeebd"/><path d="m167.995 159.995h16v16h-16z" fill="#f8bb59"/><path d="m167.995 111.995h16v16h-16z" fill="#f8bb59"/><path d="m143.995 135.995h16v16h-16z" fill="#f8bb59"/><path d="m191.995 135.995h16v16h-16z" fill="#f8bb59"/></svg>