<svg height="512" viewBox="0 0 512 512" width="512" xmlns="http://www.w3.org/2000/svg"><path d="m312.886 488a28.193 28.193 0 0 1 -27.975-24.7l-10.928-87.429a18.124 18.124 0 0 0 -17.983-15.871 18.123 18.123 0 0 0 -17.984 15.876l-10.931 87.424a28.192 28.192 0 0 1 -27.975 24.7 28.192 28.192 0 0 1 -27.645-22.663l-11.465-57.337a246.549 246.549 0 0 1 -31.84-189.471l3.968-16.666a64.893 64.893 0 0 1 63.127-49.863 64.9 64.9 0 0 1 55.645 31.5 5.943 5.943 0 0 0 10.192 0 64.9 64.9 0 0 1 55.649-31.5 64.9 64.9 0 0 1 63.13 49.863l3.968 16.666a246.545 246.545 0 0 1 -31.839 189.471l-11.467 57.337a28.192 28.192 0 0 1 -27.647 22.663z" fill="#e4e4e2"/><path d="m375.839 218.526-3.969-16.666a64.876 64.876 0 0 0 -58.294-49.66 64.806 64.806 0 0 0 -52.482 31.3 5.808 5.808 0 0 1 -9.1 1.058 5.808 5.808 0 0 1 -9.1-1.058 64.8 64.8 0 0 0 -52.482-31.3 64.876 64.876 0 0 0 -58.294 49.657l-3.968 16.666a246.549 246.549 0 0 0 31.85 189.477l11.467 57.337a28.152 28.152 0 0 0 23.533 22.3 28.129 28.129 0 0 0 24.085-24.337l10.929-87.428a17.918 17.918 0 0 1 21.986-15.381 17.919 17.919 0 0 1 21.985 15.382l10.926 87.427a28.129 28.129 0 0 0 24.083 24.336 28.152 28.152 0 0 0 23.537-22.3l11.469-57.336a246.545 246.545 0 0 0 31.839-189.474z" fill="#efefef"/><path d="m252 184.561a5.808 5.808 0 0 1 -9.1-1.058 64.8 64.8 0 0 0 -52.482-31.3 64.876 64.876 0 0 0 -58.294 49.657l-3.968 16.666a246.549 246.549 0 0 0 31.844 189.474l11.467 57.337a28.152 28.152 0 0 0 23.533 22.3 28.129 28.129 0 0 0 24.085-24.337l10.929-87.428a17.918 17.918 0 0 1 21.986-15.381 18.054 18.054 0 0 1 4-.494v-173.837a5.977 5.977 0 0 1 -4-1.599z" fill="#e5e5e5"/><path d="m74.654 184a8 8 0 0 1 -6.648-12.438l13.047-19.562h-17.053a7.995 7.995 0 0 1 -6.469-12.7l21.336-29.336a8 8 0 0 1 12.933 9.4l-12.091 16.636h16.291a8 8 0 0 1 6.656 12.437l-21.336 32a7.987 7.987 0 0 1 -6.666 3.563z" fill="#ec9e15"/><path d="m256 219.864a83.783 83.783 0 0 1 -26.531-4.281 8 8 0 1 1 5.062-15.172 68.4 68.4 0 0 0 42.938 0 8 8 0 1 1 5.062 15.172 83.778 83.778 0 0 1 -26.531 4.281z" fill="#eaeae8"/><path d="m234.529 200.411a8 8 0 1 0 -5.062 15.172 83.783 83.783 0 0 0 26.533 4.281v-16a68.072 68.072 0 0 1 -21.471-3.453z" fill="#dbdbdb"/><g fill="#fdb62f"><path d="m167.146 344a7.9 7.9 0 0 1 -4.242-1.227l-15.156-9.507a8 8 0 0 1 8.5-13.547l15.156 9.507a8 8 0 0 1 -4.258 14.774z"/><path d="m184.006 320a8 8 0 0 1 -3.586-15.156l16-8a8 8 0 0 1 7.156 14.312l-16 8a8.011 8.011 0 0 1 -3.57.844z"/><path d="m176.006 392a8 8 0 0 1 -7.164-4.422l-8-16a8 8 0 1 1 14.312-7.156l8 16a8 8 0 0 1 -7.148 11.578z"/><path d="m168.006 256a8 8 0 0 1 -7.164-4.422l-8-16a8 8 0 1 1 14.312-7.156l8 16a8 8 0 0 1 -7.148 11.578z"/><path d="m185.521 283.114a8 8 0 0 1 -3.085-15.383l13.195-5.515a8 8 0 1 1 6.172 14.765l-13.2 5.516a7.962 7.962 0 0 1 -3.082.617z"/><path d="m144 293.505a8 8 0 0 1 -3.078-15.383l13.2-5.508a8 8 0 0 1 6.156 14.766l-13.195 5.507a7.9 7.9 0 0 1 -3.083.618z"/><path d="m178.8 208a8 8 0 0 1 -3.078-15.383l13.195-5.508a8 8 0 1 1 6.156 14.766l-13.195 5.508a7.919 7.919 0 0 1 -3.078.617z"/><path d="m200 376a8 8 0 0 1 -3.078-15.383l13.2-5.508a8 8 0 0 1 6.157 14.766l-13.2 5.508a7.9 7.9 0 0 1 -3.079.617z"/><path d="m216 341.505a8 8 0 0 1 -3.078-15.383l13.2-5.508a8 8 0 0 1 6.157 14.766l-13.2 5.508a7.919 7.919 0 0 1 -3.079.617z"/><path d="m194.8 432a8 8 0 0 1 -3.078-15.383l13.195-5.508a8 8 0 1 1 6.156 14.766l-13.195 5.508a7.9 7.9 0 0 1 -3.078.617z"/></g><path d="m223.99 312a8 8 0 0 1 -7.148-11.578 36.766 36.766 0 0 1 33.047-20.422h20.219a20.834 20.834 0 0 0 18.734-11.578 8 8 0 0 1 14.312 7.156 36.763 36.763 0 0 1 -33.046 20.422h-20.219a20.833 20.833 0 0 0 -18.735 11.578 8 8 0 0 1 -7.164 4.422z" fill="#97d9a9"/><path d="m256 296v-16h-6.109a36.766 36.766 0 0 0 -33.047 20.422 8 8 0 0 0 14.312 7.156 20.833 20.833 0 0 1 18.733-11.578z" fill="#3e8cc7"/><path d="m288 248a7.926 7.926 0 0 1 -8-8 8 8 0 1 1 16 0 7.944 7.944 0 0 1 -2.32 5.679 9.276 9.276 0 0 1 -2.641 1.68 7.986 7.986 0 0 1 -3.039.641z" fill="#ffb1b4"/><path d="m224 248a7.918 7.918 0 0 1 -7.359-11.039 8.239 8.239 0 0 1 1.679-2.641 12.909 12.909 0 0 1 1.2-.961 5.971 5.971 0 0 1 1.445-.719 5.215 5.215 0 0 1 1.438-.484 7.008 7.008 0 0 1 3.117 0 4.972 4.972 0 0 1 1.523.484 4.4 4.4 0 0 1 1.36.719 5.035 5.035 0 0 1 1.2.961 7.281 7.281 0 0 1 1.757 2.641 7.986 7.986 0 0 1 .64 3.039 8.056 8.056 0 0 1 -8 8z" fill="#ffb1b4"/><path d="m55.998 271.997h16v16h-16z" fill="#fbeebd"/><path d="m55.998 239.997h16v16h-16z" fill="#fbeebd"/><path d="m39.998 255.997h16v16h-16z" fill="#fbeebd"/><path d="m71.998 255.997h16v16h-16z" fill="#fbeebd"/><path d="m439.763 119.879-3.559 1.668a54.094 54.094 0 0 0 -24.836 23.639l-3.487 6.575-3.487-6.575a54.1 54.1 0 0 0 -24.837-23.639l-3.557-1.668a54.1 54.1 0 0 0 29.333-26.7l2.548-5.179 2.549 5.185a54.1 54.1 0 0 0 29.333 26.7z" fill="#f8bb59"/><path d="m487.763 55.879-3.563 1.667a54.1 54.1 0 0 0 -24.836 23.64l-3.487 6.575-3.487-6.575a54.1 54.1 0 0 0 -24.837-23.64l-3.553-1.667a54.093 54.093 0 0 0 29.333-26.7l2.548-5.179 2.549 5.185a54.1 54.1 0 0 0 29.333 26.7z" fill="#f8bb59"/><path d="m209.131 243.012a8 8 0 0 1 -3.086-15.382l13.2-5.516a8 8 0 0 1 6.172 14.766l-13.2 5.52a7.969 7.969 0 0 1 -3.086.612z" fill="#3e8cc7"/></svg>