<svg height="512" viewBox="0 0 512 512" width="512" xmlns="http://www.w3.org/2000/svg"><path d="m298.631 439.162a26.635 26.635 0 0 1 -26.631-26.635v-53.366a16 16 0 0 0 -16-16 16 16 0 0 0 -16 16v53.366a26.635 26.635 0 0 1 -26.635 26.635 26.635 26.635 0 0 1 -26-20.857l-3.787-17.043a224 224 0 0 0 -25.18-64.274 257.177 257.177 0 0 1 -34.737-141.945l1.483-30.837a62.373 62.373 0 0 1 62.3-59.377 62.37 62.37 0 0 1 47.213 21.614 28.193 28.193 0 0 0 42.681 0 62.374 62.374 0 0 1 47.214-21.614 62.374 62.374 0 0 1 62.3 59.377l1.483 30.837a257.194 257.194 0 0 1 -34.735 141.944 224.049 224.049 0 0 0 -25.179 64.275l-3.787 17.043a26.635 26.635 0 0 1 -26.003 20.857z" fill="#dbdbdb"/><path d="m360.254 324.573a31.687 31.687 0 0 0 -16.254-4.573h-16v-22.646c0-13-9.732-24.644-22.71-25.324a24 24 0 0 0 -25.29 23.97v-6.642c0-13-9.732-24.644-22.71-25.324a24 24 0 0 0 -25.29 23.966v8a24 24 0 0 0 -25.086-23.976c-13.103.576-22.914 12.424-22.914 25.538v-49.562a31.908 31.908 0 0 0 -59.463-16.181h-.009a257.2 257.2 0 0 0 33.872 105.172 223.98 223.98 0 0 1 25.179 64.275l3.788 17.042a26.633 26.633 0 0 0 26 20.857 26.634 26.634 0 0 0 26.633-26.634v-53.366a16 16 0 0 1 32 0v53.366a26.634 26.634 0 0 0 26.634 26.634 26.633 26.633 0 0 0 26-20.857l3.787-17.042a224.011 224.011 0 0 1 25.18-64.275q3.573-6.126 6.791-12.418z" fill="#ec9e15"/><path d="m298.631 439.162a26.635 26.635 0 0 0 26-20.857l3.787-17.043a224.049 224.049 0 0 1 25.182-64.275c.11-.189.215-.38.325-.57q1.373-2.365 2.688-4.759.448-.812.89-1.626c.961-1.77 1.908-3.548 2.825-5.338.021-.04.04-.081.061-.121h-.134a31.687 31.687 0 0 0 -16.255-4.573z" fill="#ec9e15"/><path d="m380.336 195.042-1.483-30.837a62.332 62.332 0 0 0 -58.1-59.172 62.3 62.3 0 0 0 -43.417 21.409 28.008 28.008 0 0 1 -25.336 9.352 28.01 28.01 0 0 1 -25.341-9.352 62.3 62.3 0 0 0 -43.418-21.409 62.331 62.331 0 0 0 -58.1 59.172l-1.483 30.837a257.177 257.177 0 0 0 34.742 141.945 224.022 224.022 0 0 1 25.18 64.275l3.787 17.043a26.62 26.62 0 0 0 21.692 20.484 26.556 26.556 0 0 0 22.941-26.262v-53.366a15.805 15.805 0 0 1 20-15.434 15.805 15.805 0 0 1 20 15.434v53.366a26.555 26.555 0 0 0 22.943 26.262 26.62 26.62 0 0 0 21.692-20.484l3.787-17.043a223.993 223.993 0 0 1 25.18-64.275 257.185 257.185 0 0 0 34.734-141.945z" fill="#ebebeb"/><path d="m294.94 438.789a26.622 26.622 0 0 0 21.692-20.484l3.787-17.043a224.022 224.022 0 0 1 25.18-64.275q4.4-7.546 8.259-15.347a30.76 30.76 0 0 0 -9.858-1.64h-16v-22.646c0-13-9.732-24.644-22.71-25.324a24 24 0 0 0 -25.29 23.97v-6.642c0-13-9.732-24.644-22.71-25.324a24 24 0 0 0 -25.29 23.966v8a24 24 0 0 0 -25.086-23.976c-13.103.576-22.914 12.424-22.914 25.538v-49.562a31.908 31.908 0 0 0 -59.463-16.181h-.01a257.184 257.184 0 0 0 33.873 105.168 224.022 224.022 0 0 1 25.18 64.275l3.787 17.043a26.619 26.619 0 0 0 21.692 20.484 26.73 26.73 0 0 0 17.079-9.659 26.46 26.46 0 0 0 2.606-3.877 26.172 26.172 0 0 0 1.9-4.324q.189-.564.354-1.141a26.486 26.486 0 0 0 1.002-7.261v-53.366l1.081-5.744a15.991 15.991 0 0 1 14.919-10.256 15.787 15.787 0 0 1 3.924.548 15.952 15.952 0 0 1 2.826-.481c.412-.039.827-.067 1.25-.067a15.991 15.991 0 0 1 16 16v53.366" fill="#fdb62f"/><path d="m272 412.531q0 .677.034 1.345c0 .068.01.136.014.2.021.363.047.724.082 1.082.015.15.035.3.052.449.031.269.064.538.1.805.029.2.064.4.1.6s.071.415.111.621c.048.242.1.482.153.722.033.149.067.3.1.446q.1.433.224.863l.069.239a26.641 26.641 0 0 0 21.9 18.886" fill="#fdb62f"/><path d="m279.989 215.993a7.97 7.97 0 0 1 -4.43-1.344 35.176 35.176 0 0 0 -39.125 0 8 8 0 1 1 -8.875-13.313 51.138 51.138 0 0 1 56.875 0 8 8 0 0 1 -4.445 14.657z" fill="#ffb1b4"/><path d="m224 183.993a8 8 0 0 1 -8-8v-8a8 8 0 0 1 16 0v8a8 8 0 0 1 -8 8z" fill="#4298d1"/><path d="m288 183.993a8 8 0 0 1 -8-8v-8a8 8 0 0 1 16 0v8a8 8 0 0 1 -8 8z" fill="#4298d1"/><g fill="#ec9e15"><path d="m207.997 319.993h16v16h-16z"/><path d="m175.997 319.993h16v16h-16z"/><path d="m199.997 351.993h16v16h-16z"/><path d="m207.997 383.993h16v16h-16z"/><path d="m295.997 383.993h16v16h-16z"/><path d="m303.997 343.993h16v16h-16z"/><path d="m279.997 319.993h16v16h-16z"/><path d="m247.997 303.993h16v16h-16z"/><path d="m143.997 239.993h16v16h-16z"/><path d="m151.997 271.993h16v16h-16z"/><path d="m336 183.993a16 16 0 0 0 16 16h-16a16 16 0 0 0 0 32h10.219a15.837 15.837 0 0 0 -2.219 8 16 16 0 0 0 16 16h23.86a256.919 256.919 0 0 0 4.479-60.951l-1.3-27.05h-35.039a16 16 0 0 0 -16 16.001z"/></g><path d="m336 183.992a16 16 0 0 0 16 16h-16a16 16 0 0 0 0 32h10.219a15.837 15.837 0 0 0 -2.219 8 16 16 0 0 0 16 16h16a257.178 257.178 0 0 0 4.343-60.951l-1.3-27.05h-27.043a16 16 0 0 0 -16 16.001z" fill="#fdb62f"/><path d="m407.997 63.992h16v16h-16z" fill="#bef5fa"/><path d="m407.997 111.992h16v16h-16z" fill="#bef5fa"/><path d="m383.997 87.992h16v16h-16z" fill="#bef5fa"/><path d="m431.997 87.992h16v16h-16z" fill="#bef5fa"/></svg>